<svg width="258" height="262" viewBox="0 0 258 262" fill="none" xmlns="http://www.w3.org/2000/svg">
<g clip-path="url(#clip0_31_48)">
<path d="M102.104 8.88582L105.725 47.1323H110.08L106.224 11.1315C105.905 8.09566 108.277 5.44794 111.342 5.44794H151.957C155.161 5.44794 157.644 8.20656 157.325 11.3949L153.469 48.5185H157.824L161.278 11.0484C161.819 5.11524 157.158 0 151.194 0H110.191C105.392 0 101.647 4.11714 102.104 8.88582Z" fill="#747170"/>
<path d="M184.483 145.556H160.902V30.4973H180.322L184.483 145.556Z" fill="#5BBEB2"/>
<path d="M176.161 152.487H80.4512L84.6125 30.4973H172L176.161 152.487Z" fill="#49A49F"/>
<path d="M234.766 262H25.3143L11.4434 106.741H245.863L234.766 262Z" fill="#C9A876"/>
<path d="M258 106.741H0V160.804H258V106.741Z" fill="#D2B987"/>
<path d="M152.581 182.984H102.646C100.343 182.984 98.4844 181.127 98.4844 178.825C98.4844 176.524 100.343 174.667 102.646 174.667H152.581C154.884 174.667 156.742 176.524 156.742 178.825C156.742 181.127 154.884 182.984 152.581 182.984Z" fill="#856B4A"/>
</g>
<defs>
<clipPath id="clip0_31_48">
<rect width="258" height="262" fill="white"/>
</clipPath>
</defs>
</svg>
