<svg width="354" height="230" viewBox="0 0 354 230" fill="none" xmlns="http://www.w3.org/2000/svg">
<g clip-path="url(#clip0_27_3)">
<path d="M143.988 15.7769C116.894 19.5047 97.9919 44.7275 101.766 72.1174C128.854 68.3896 147.762 43.1668 143.988 15.7769Z" fill="#99CA5F"/>
<path d="M96.8097 22.0573C85.0767 34.9846 86.1641 55.0832 99.2499 66.949C110.983 54.0217 109.896 33.9231 96.8097 22.0573Z" fill="#99CA5F"/>
<path d="M162.479 54.1166C141.403 42.9773 115.282 51.0269 104.137 72.0922C125.213 83.2314 151.334 75.1819 162.479 54.1166Z" fill="#99CA5F"/>
<path d="M33.5617 157.813C30.4262 155.178 29.5285 150.958 31.5008 148.133L88.1492 66.9933C91.9106 61.6037 100.217 61.2941 106.191 66.3235C111.938 71.1507 113.227 79.0044 109.055 83.7432L43.7206 157.908C41.3437 160.606 36.83 160.561 33.5617 157.813Z" fill="#F19145"/>
<path d="M225.164 160.309C225.164 160.309 203.304 109.162 234.874 91.0788C234.874 91.0788 243.206 86.3843 250.135 88.3746C250.135 88.3746 254.585 65.4959 267.26 66.5448C267.26 66.5448 273.835 65.9572 278.064 73.1095C278.064 73.1095 296.137 63.8342 307.409 68.1686C318.68 72.5029 317.043 78.6065 317.043 78.6065C317.043 78.6065 317.985 80.9506 313.876 82.5996C313.876 82.5996 337.001 84.2298 344.29 99.0084C351.578 113.787 343.828 114.848 349.119 129.747C354.41 144.646 356.054 148.753 350.776 154.269C345.497 159.784 340.787 158.268 340.787 158.268C340.787 158.268 350.194 168.112 338.461 179.618C326.728 191.123 314.047 190.075 314.047 190.075C314.047 190.075 308.42 203.217 298.325 205.22C288.229 207.216 277.425 200.651 277.425 200.651C277.425 200.651 268.392 213.8 255.236 201.365C255.236 201.365 249.243 191.515 240.203 184.243C231.163 176.97 225.164 160.309 225.164 160.309Z" fill="#87B454"/>
<path d="M193.323 121.855C193.323 121.855 148.11 89.4296 165.735 57.6168C165.735 57.6168 170.426 49.283 177.386 47.4001C177.386 47.4001 169.332 25.526 180.717 19.8585C180.717 19.8585 186.034 15.9474 193.361 19.8774C193.361 19.8774 204.006 2.58415 215.897 0.454868C227.788 -1.67441 229.546 4.39119 229.546 4.39119C229.546 4.39119 231.569 5.91391 228.907 9.44586C228.907 9.44586 249.535 -1.13735 263.424 7.73359C277.312 16.6045 271.237 21.5202 283.489 31.5221C295.74 41.524 299.274 44.1841 297.617 51.6397C295.961 59.0953 291.15 60.2326 291.15 60.2326C291.15 60.2326 304.299 63.7835 300.228 79.6994C296.157 95.6153 284.766 101.283 284.766 101.283C284.766 101.283 286.763 115.442 279.171 122.38C271.572 129.317 258.929 129.298 258.929 129.298C258.929 129.298 258.019 145.221 240.324 141.398C240.324 141.398 230.09 136.072 218.59 134.536C207.085 132.995 193.323 121.855 193.323 121.855Z" fill="#67AB69"/>
<path d="M170.798 151.463C170.798 151.463 148.938 100.316 180.508 82.2331C180.508 82.2331 188.84 77.5386 195.769 79.5289C195.769 79.5289 200.219 56.6502 212.894 57.6991C212.894 57.6991 219.468 57.1114 223.698 64.2638C223.698 64.2638 241.771 54.9885 253.043 59.3229C264.314 63.6572 262.677 69.7608 262.677 69.7608C262.677 69.7608 263.619 72.1049 259.51 73.7539C259.51 73.7539 282.634 75.3841 289.923 90.1627C297.212 104.941 289.462 106.003 294.753 120.901C300.044 135.8 301.688 139.907 296.409 145.423C291.131 150.939 286.421 149.422 286.421 149.422C286.421 149.422 295.828 159.266 284.095 170.772C272.362 182.278 259.681 181.229 259.681 181.229C259.681 181.229 254.054 194.371 243.959 196.374C233.863 198.37 223.059 191.806 223.059 191.806C223.059 191.806 214.026 204.954 200.87 192.52C200.87 192.52 194.877 182.669 185.837 175.397C176.797 168.125 170.798 151.463 170.798 151.463Z" fill="#99CA5F"/>
<path d="M170.248 159.431L168.794 155.797C168.055 153.946 168.927 151.842 170.76 151.059L215.947 131.845C220.082 130.088 224.134 128.161 228.11 126.063L267.949 105.068C269.315 104.347 271.003 104.966 271.578 106.401C272.046 107.57 271.61 108.903 270.548 109.566C239.881 128.818 208.039 146.124 175.204 161.389C173.289 162.274 171.026 161.383 170.248 159.431Z" fill="#EAEEB6"/>
<path d="M238.756 122.216C238.756 122.216 245.552 94.9899 240.968 88.6589C240.968 88.6589 239.205 85.961 237.915 91.2431C236.625 96.5252 238.509 108.018 228.072 127.852L238.756 122.216Z" fill="#EAEEB6"/>
<path d="M219.651 136.476C219.651 136.476 250.925 146.036 255.716 154.281C255.716 154.281 257.834 157.605 251.778 155.722C245.722 153.839 234.431 145.157 209.436 143.553L219.651 136.476Z" fill="#EAEEB6"/>
<path d="M224.735 131.188C224.735 131.188 254.801 129.298 262.304 134.359C262.304 134.359 265.484 136.35 259.649 136.691C253.815 137.032 240.722 133.582 219.279 139.863L224.735 131.188Z" fill="#EAEEB6"/>
<path d="M190.623 148.531C190.623 148.531 220.499 151.046 228.686 155.892C228.686 155.892 232.137 157.826 226.334 157.32C220.531 156.815 206.964 152.461 186.299 154.42L190.623 148.531Z" fill="#EAEEB6"/>
<path d="M214.639 135.832C214.639 135.832 226.334 112.441 223.451 105.75C223.451 105.75 222.396 102.938 220.151 107.481C217.907 112.024 217.294 122.866 203.778 138.795L214.639 135.832Z" fill="#EAEEB6"/>
<path d="M197.463 139.338C197.463 139.338 201.584 113.515 196.818 107.999C196.818 107.999 194.965 105.636 194.194 110.64C193.423 115.644 196.097 126.171 187.999 145.429L197.463 139.338Z" fill="#EAEEB6"/>
<path d="M55.4531 150.282C64.373 166.93 85.2597 173.116 102.107 164.1C93.1871 147.451 72.3003 141.265 55.4531 150.282Z" fill="#3E651B"/>
<path d="M110.452 171.764C119.372 188.413 140.259 194.598 157.106 185.582C148.186 168.933 127.299 162.748 110.452 171.764Z" fill="#3E651B"/>
<path d="M146.789 164.232C162.849 164.232 175.868 152.281 175.868 137.537C175.868 122.794 162.849 110.843 146.789 110.843C130.728 110.843 117.709 122.794 117.709 137.537C117.709 152.281 130.728 164.232 146.789 164.232Z" fill="#D3334C"/>
<path d="M174.92 208.461C192.9 208.461 207.476 195.024 207.476 178.449C207.476 161.874 192.9 148.437 174.92 148.437C156.939 148.437 142.363 161.874 142.363 178.449C142.363 195.024 156.939 208.461 174.92 208.461Z" fill="#EB665A"/>
<path d="M136.042 178.133C152.102 178.133 165.121 164.413 165.121 147.489C165.121 130.565 152.102 116.845 136.042 116.845C119.981 116.845 106.962 130.565 106.962 147.489C106.962 164.413 119.981 178.133 136.042 178.133Z" fill="#EA5455"/>
<path d="M97.48 161.705C113.54 161.705 126.56 148.693 126.56 132.641C126.56 116.589 113.54 103.576 97.48 103.576C81.4198 103.576 68.4004 116.589 68.4004 132.641C68.4004 148.693 81.4198 161.705 97.48 161.705Z" fill="#D3334C"/>
<path d="M94.3195 138.959C108.983 138.959 120.87 127.078 120.87 112.422C120.87 97.7662 108.983 85.8851 94.3195 85.8851C79.6558 85.8851 67.7686 97.7662 67.7686 112.422C67.7686 127.078 79.6558 138.959 94.3195 138.959Z" fill="#EA5455"/>
<path d="M184.529 140.223C193.502 140.223 200.776 133.267 200.776 124.686C200.776 116.105 193.502 109.149 184.529 109.149C175.556 109.149 168.282 116.105 168.282 124.686C168.282 133.267 175.556 140.223 184.529 140.223Z" fill="#EE7B60"/>
<path d="M172.708 124.427C188.07 124.427 200.523 112.404 200.523 97.574C200.523 82.7435 188.07 70.7211 172.708 70.7211C157.346 70.7211 144.893 82.7435 144.893 97.574C144.893 112.404 157.346 124.427 172.708 124.427Z" fill="#EA5455"/>
<path d="M0 124.143C4.72228 151.394 30.9066 169.609 58.4816 164.833C53.7594 137.588 27.5751 119.372 0 124.143Z" fill="#639233"/>
<path d="M8.00977 171.6C21.5002 183.004 41.7927 181.197 53.336 167.562C39.8456 156.151 19.5531 157.965 8.00977 171.6Z" fill="#639233"/>
<path d="M38.139 104.107C27.6134 125.798 36.6724 151.918 58.3746 162.438C68.9002 140.747 59.8412 114.634 38.139 104.107Z" fill="#639233"/>
<path d="M200.726 173.628L194.834 172.901L194.878 178.84L190.807 173.691L186.205 176.458L187.02 170.759L181.242 168.276L186.331 166.318L183.727 160.454L189.258 163.708L191.787 158.881L193.595 164.902L199.354 164.744L196.073 168.99L200.726 173.628Z" fill="#007231"/>
<path d="M114.587 129.949L110.111 127.043L106.855 131.27L106.343 125.962L101.008 126.057L104.839 122.348L101.438 118.235L106.729 118.917L107.823 113.692L110.591 118.254L115.358 115.853L113.518 120.863L118.367 123.087L113.303 124.774L114.587 129.949Z" fill="#00873C"/>
<path d="M152.864 167.6L150.506 162.154L145.404 165.193L147.788 159.077L143.078 156.511L148.407 154.332L147.63 148.095L151.897 151.495L155.639 146.282L155.62 152.695L161.07 152.436L156.79 157.036L159.837 161.926L154.508 161.244L152.864 167.6Z" fill="#136B32"/>
<path d="M159.818 98.7303L157.46 93.2839L152.359 96.323L154.742 90.2069L150.032 87.6416L155.361 85.4618L154.584 79.2256L158.851 82.6249L162.593 77.4122L162.574 83.8253L168.024 83.5663L163.744 88.166L166.791 93.0564L161.462 92.374L159.818 98.7303Z" fill="#00873C"/>
<path d="M106.545 201.966C103.214 205.978 97.6822 207.387 92.8335 205.46L58.3299 191.724C46.4009 186.978 42.4688 172.048 50.51 162.04C57.369 153.51 70.0249 152.588 78.0471 160.031L105.47 185.468C110.155 189.815 110.623 197.056 106.545 201.966Z" fill="#F19145"/>
<path d="M137.951 221.578C134.133 224.023 129.101 223.296 126.13 219.878L92.1822 180.799C86.4042 174.146 87.6686 163.948 94.9005 158.906C102.17 153.833 112.241 156.227 116.457 164.024L141.061 209.56C143.324 213.756 141.972 219 137.951 221.578Z" fill="#F4A76D"/>
<path d="M249.409 222.987C248.359 227.397 244.231 230.366 239.711 229.962L188.133 225.356C179.352 224.573 173.182 216.352 174.889 207.703C176.608 199.009 185.516 193.745 193.968 196.443L243.302 212.176C247.854 213.623 250.521 218.343 249.409 222.987Z" fill="#F4A76D"/>
<path d="M96.6963 186.075C103.441 198.661 119.227 203.337 131.965 196.519C125.213 183.933 109.428 179.257 96.6963 186.075Z" fill="#639233"/>
<path d="M108.328 208.025C116.793 211.424 126.44 207.241 129.879 198.686C121.42 195.287 111.767 199.47 108.328 208.025Z" fill="#639233"/>
<path d="M112.121 170.064C110.49 182.404 119.169 193.726 131.516 195.357C133.153 183.023 124.467 171.701 112.121 170.064Z" fill="#639233"/>
<path d="M174.706 166.273C173.075 178.613 181.754 189.935 194.101 191.566C195.738 179.232 187.052 167.91 174.706 166.273Z" fill="#639233"/>
<path d="M160.804 189.708C170.299 200.967 187.127 202.401 198.392 192.911C188.897 181.652 172.069 180.218 160.804 189.708Z" fill="#639233"/>
<path d="M185.717 219.752C183.808 223.909 179.491 226.234 175.565 225.211L130.738 213.553C123.101 211.569 119.435 202.692 122.855 194.491C126.294 186.246 135.378 182.347 142.294 186.151L182.677 208.353C186.4 210.401 187.728 215.367 185.717 219.752Z" fill="#F19145"/>
<path d="M256.185 207.614C255.414 210.976 251.849 213.117 247.809 212.637L201.712 207.166C193.86 206.237 188.063 199.659 189.264 193.044C190.472 186.397 198.209 182.663 205.833 185.058L250.344 199.034C254.453 200.329 257.001 204.07 256.185 207.614Z" fill="#F19145"/>
</g>
<defs>
<clipPath id="clip0_27_3">
<rect width="354" height="230" fill="white"/>
</clipPath>
</defs>
</svg>
