<svg xmlns="http://www.w3.org/2000/svg" width="16" height="16" viewBox="0 0 16 16" fill="none">
    <path fill-rule="evenodd" clip-rule="evenodd" d="M5.92105 9.8421C8.08659 9.8421 9.8421 8.08659 9.8421 5.92105C9.8421 3.75552 8.08659 2 5.92105 2C3.75552 2 2 3.75552 2 5.92105C2 8.08659 3.75552 9.8421 5.92105 9.8421ZM10.4466 9.73945C11.3173 8.70856 11.8421 7.3761 11.8421 5.92105C11.8421 2.65095 9.19116 0 5.92105 0C2.65095 0 0 2.65095 0 5.92105C0 9.19116 2.65095 11.8421 5.92105 11.8421C7.3761 11.8421 8.70856 11.3173 9.73945 10.4466L10.0866 10.7937C9.99748 11.1273 10.0838 11.498 10.3455 11.7597L13.5034 14.9176C13.8939 15.3082 14.5271 15.3082 14.9176 14.9176C15.3082 14.5271 15.3082 13.8939 14.9176 13.5034L11.7597 10.3455C11.498 10.0838 11.1273 9.99748 10.7937 10.0866L10.4466 9.73945Z" fill="#A6A6A6"/>
</svg>